<svg xmlns="http://www.w3.org/2000/svg" xmlns:xlink="http://www.w3.org/1999/xlink" width="12" height="12" viewBox="0 0 12 12"><defs><style>.a{fill:#919191;stroke:#919191;stroke-linejoin:round;stroke-width:0.5px;}.b{clip-path:url(#a);}</style><clipPath id="a"><rect class="a" width="12" height="12" transform="translate(275 494)"/></clipPath></defs><g class="b" transform="translate(-275 -494)"><g transform="translate(275.494 494.897)"><path class="a" d="M10.7,4.889a.314.314,0,0,0-.316.316v2.87A1.416,1.416,0,0,1,8.967,9.488H2.045A1.416,1.416,0,0,1,.631,8.074V5.157a.316.316,0,0,0-.631,0V8.074a2.047,2.047,0,0,0,2.045,2.045H8.967a2.047,2.047,0,0,0,2.045-2.045V5.2A.316.316,0,0,0,10.7,4.889Z" transform="translate(0 0.087)"/><path class="a" d="M4.991.46A.318.318,0,0,1,5.213.366.308.308,0,0,1,5.435.46L7.441,2.465a.316.316,0,1,1-.446.446L5.529,1.443v5.2a.315.315,0,0,1-.631,0v-5.2L3.43,2.911a.316.316,0,0,1-.446-.446Z" transform="translate(0.293 -0.366)"/></g></g></svg>